<?xml version="1.0" encoding="UTF-8" standalone="no"?>
<svg
   width="24"
   height="24"
   viewBox="0 0 24 24"
   fill="none"
   stroke="currentColor"
   stroke-width="2"
   stroke-linecap="round"
   stroke-linejoin="round"
   class="feather feather-arrow-down-circle"
   version="1.1"
   id="svg52821"
   sodipodi:docname="add_icon.svg"
   inkscape:version="1.2.2 (732a01da63, 2022-12-09)"
   xmlns:inkscape="http://www.inkscape.org/namespaces/inkscape"
   xmlns:sodipodi="http://sodipodi.sourceforge.net/DTD/sodipodi-0.dtd"
   xmlns="http://www.w3.org/2000/svg"
   xmlns:svg="http://www.w3.org/2000/svg">
  <defs
     id="defs52825" />
  <sodipodi:namedview
     id="namedview52823"
     pagecolor="#ffffff"
     bordercolor="#666666"
     borderopacity="1.0"
     inkscape:pageshadow="2"
     inkscape:pageopacity="0.0"
     inkscape:pagecheckerboard="0"
     showgrid="false"
     inkscape:zoom="36.291667"
     inkscape:cx="11.297359"
     inkscape:cy="12.013777"
     inkscape:window-width="2560"
     inkscape:window-height="1057"
     inkscape:window-x="-8"
     inkscape:window-y="-8"
     inkscape:window-maximized="1"
     inkscape:current-layer="svg52821"
     inkscape:showpageshadow="2"
     inkscape:deskcolor="#d1d1d1" />
  <line
     x1="12"
     y1="16"
     x2="12"
     y2="8"
     id="line37"
     style="display:inline" />
  <line
     x1="8"
     y1="12"
     x2="16"
     y2="12"
     id="line37-6"
     style="display:inline;fill:#f0f0f0;fill-opacity:1" />
  <path
     style="fill:#f0f0f0;fill-opacity:1;stroke-width:0.055;stroke-miterlimit:4;stroke-dasharray:none"
     d="m 11.706895,16.934723 c -0.205388,-0.0657 -0.386698,-0.199482 -0.506938,-0.374065 -0.180121,-0.261528 -0.178143,-0.239462 -0.178143,-1.987647 v -1.578966 l -1.6188289,-0.0079 -1.618829,-0.0079 -0.1791044,-0.08527 C 7.3856251,12.788452 7.206474,12.614305 7.1116692,12.413318 7.0503765,12.283377 7.0401837,12.224444 7.0401837,12 c 0,-0.224444 0.010193,-0.283377 0.071485,-0.413318 0.094805,-0.200987 0.2739559,-0.375134 0.4933825,-0.479599 l 0.1791044,-0.08527 1.618829,-0.0079 1.6188294,-0.0079 V 9.4269895 c 0,-1.7502599 -0.0022,-1.7257789 0.179856,-1.9901349 C 11.371211,7.1906887 11.706293,7.0126292 12,7.0126292 c 0.293707,0 0.628789,0.1780595 0.79833,0.4242254 0.182068,0.264356 0.179856,0.239875 0.179856,1.9901349 v 1.5789655 l 1.618829,0.0079 1.618829,0.0079 0.179104,0.08527 c 0.219427,0.104465 0.398578,0.278612 0.493383,0.479599 0.06129,0.129941 0.07148,0.188874 0.07148,0.413318 0,0.224444 -0.01019,0.283377 -0.07148,0.413318 -0.09481,0.200987 -0.273956,0.375134 -0.493383,0.479599 l -0.179104,0.08527 -1.618829,0.0079 -1.618829,0.0079 v 1.578966 c 0,1.750259 0.0022,1.725778 -0.179856,1.990134 -0.173035,0.251239 -0.508543,0.426295 -0.81022,0.422744 -0.06924,-8.16e-4 -0.195782,-0.02384 -0.281215,-0.05117 z"
     id="path61403" />
</svg>
