<?xml version="1.0" encoding="UTF-8" standalone="no"?>
<svg
   width="24"
   height="24"
   viewBox="0 0 24 24"
   fill="none"
   stroke="currentColor"
   stroke-width="2"
   stroke-linecap="round"
   stroke-linejoin="round"
   class="feather feather-arrow-down-circle"
   version="1.1"
   id="svg52821"
   sodipodi:docname="arrow-down-circle.svg"
   inkscape:version="1.2.2 (732a01da63, 2022-12-09)"
   xmlns:inkscape="http://www.inkscape.org/namespaces/inkscape"
   xmlns:sodipodi="http://sodipodi.sourceforge.net/DTD/sodipodi-0.dtd"
   xmlns="http://www.w3.org/2000/svg"
   xmlns:svg="http://www.w3.org/2000/svg">
  <defs
     id="defs52825" />
  <sodipodi:namedview
     id="namedview52823"
     pagecolor="#ffffff"
     bordercolor="#666666"
     borderopacity="1.0"
     inkscape:pageshadow="2"
     inkscape:pageopacity="0.0"
     inkscape:pagecheckerboard="0"
     showgrid="false"
     inkscape:zoom="36.291667"
     inkscape:cx="12.013777"
     inkscape:cy="12.013777"
     inkscape:window-width="2560"
     inkscape:window-height="1057"
     inkscape:window-x="-8"
     inkscape:window-y="-8"
     inkscape:window-maximized="1"
     inkscape:current-layer="svg52821"
     inkscape:showpageshadow="2"
     inkscape:deskcolor="#d1d1d1" />
  <polyline
     points="8 12 12 16 16 12"
     id="polyline52817" />
  <line
     x1="12"
     y1="8"
     x2="12"
     y2="16"
     id="line52819" />
  <path
     style="fill:#f0f0f0;stroke-width:0.0551091"
     d="m 11.691385,16.937713 c -0.07881,-0.02814 -0.190405,-0.0839 -0.247991,-0.123904 -0.05759,-0.04001 -1.037119,-1.006186 -2.1767375,-2.147064 C 6.8991424,12.296617 7.0401837,12.465548 7.0401837,12 c 0,-0.224444 0.010193,-0.283377 0.071485,-0.413318 0.094937,-0.201268 0.2742188,-0.375366 0.4933825,-0.479118 0.1538405,-0.07283 0.2101986,-0.08475 0.3995407,-0.08449 0.4047003,5.43e-4 0.3771856,-0.0208 1.7841562,1.384229 l 1.2330659,1.231368 v -2.895322 c 0,-3.2023047 -0.0093,-3.0318885 0.179856,-3.3064914 C 11.371211,7.1906887 11.706293,7.0126292 12,7.0126292 c 0.293707,0 0.628789,0.1780595 0.79833,0.4242254 0.189126,0.2746029 0.179856,0.1041867 0.179856,3.3064914 v 2.895322 L 14.211251,12.4073 c 1.406971,-1.405034 1.379456,-1.383687 1.784157,-1.384229 0.189342,-2.48e-4 0.2457,0.01167 0.39954,0.08449 0.219164,0.103752 0.398446,0.27785 0.493383,0.479118 0.06129,0.129941 0.07148,0.188874 0.07148,0.413318 0,0.46661 0.146569,0.2917 -2.267648,2.706138 -1.905195,1.905368 -2.129765,2.121099 -2.278305,2.188621 -0.217891,0.09905 -0.515778,0.116758 -0.722478,0.04295 z"
     id="path52903" />
</svg>
