<?xml version="1.0" encoding="UTF-8" standalone="no"?>
<svg
   viewBox="0 0 24 24"
   version="1.1"
   id="svg10719"
   sodipodi:docname="bullseye.svg"
   width="24"
   height="24"
   inkscape:version="1.2.2 (732a01da63, 2022-12-09)"
   xmlns:inkscape="http://www.inkscape.org/namespaces/inkscape"
   xmlns:sodipodi="http://sodipodi.sourceforge.net/DTD/sodipodi-0.dtd"
   xmlns="http://www.w3.org/2000/svg"
   xmlns:svg="http://www.w3.org/2000/svg">
  <defs
     id="defs10723" />
  <sodipodi:namedview
     id="namedview10721"
     pagecolor="#ffffff"
     bordercolor="#666666"
     borderopacity="1.0"
     inkscape:showpageshadow="2"
     inkscape:pageopacity="0.0"
     inkscape:pagecheckerboard="0"
     inkscape:deskcolor="#d1d1d1"
     showgrid="false"
     inkscape:zoom="35.583333"
     inkscape:cx="11.690867"
     inkscape:cy="12"
     inkscape:window-width="2560"
     inkscape:window-height="1057"
     inkscape:window-x="-8"
     inkscape:window-y="-8"
     inkscape:window-maximized="1"
     inkscape:current-layer="svg10719" />
  <g
     class=""
     transform="matrix(0.04756814,0,0,0.04756814,-0.1770876,-0.17750539)"
     id="g10717"
     style="fill:#ffffff;fill-opacity:1;stroke:#000000;stroke-opacity:1">
    <path
       d="m 311.133,257.95 a 15.074,15.074 0 0 1 -12.845,17.026 l -147.248,20.61 -21.33,32.522 -82.637,11.57 21.33,-32.568 -24.547,3.44 c -0.278,0 -0.555,0.12 -0.843,0.165 a 15.218,15.218 0 0 1 -2.108,0.144 15.074,15.074 0 0 1 -2.074,-30.016 c 0.29,0 0.567,0 0.855,-0.078 l 24.547,-3.438 -29.45,-25.512 82.582,-11.547 29.45,25.51 147.26,-20.608 a 15.196,15.196 0 0 1 2.107,-0.145 15.085,15.085 0 0 1 14.953,12.923 z m -36.704,-38.546 a 32.4,32.4 0 0 1 10.847,-10.326 23.427,23.427 0 0 1 13.422,-3.04 27.875,27.875 0 0 1 13.542,5.047 44.557,44.557 0 0 1 11.924,12.59 66.342,66.342 0 0 1 8.386,19.134 77.48,77.48 0 0 1 2.562,21.995 67.895,67.895 0 0 1 -3.494,19.966 46.132,46.132 0 0 1 -8.54,15.352 28.163,28.163 0 0 1 -12.402,8.552 23.382,23.382 0 0 1 -13.765,0.255 32.012,32.012 0 0 1 -12.512,-7.122 45.478,45.478 0 0 1 -5.734,-6.2 l -32.278,4.514 a 131.154,131.154 0 0 0 7.1,15.973 104.566,104.566 0 0 0 18.656,25.512 69.016,69.016 0 0 0 23.893,15.806 48.373,48.373 0 0 0 27.597,2.22 53.43,53.43 0 0 0 26.31,-14.876 c 7.898,-7.853 14.42,-18.258 19.112,-30.514 a 131.997,131.997 0 0 0 8.32,-41.995 153.26,153.26 0 0 0 -5.48,-46.92 128.758,128.758 0 0 0 -18.49,-39.932 c -7.6,-10.726 -16.417,-18.946 -25.78,-24.403 a 52.998,52.998 0 0 0 -27.962,-7.62 48.573,48.573 0 0 0 -26.278,8.718 69.88,69.88 0 0 0 -20.165,21.897 107.505,107.505 0 0 0 -11.99,29.516 137.144,137.144 0 0 0 -3.55,21.497 l 31.192,-4.37 a 49.172,49.172 0 0 1 5.557,-11.226 z M 472.734,184.42 C 461.808,149.146 445.447,119.663 425.892,97.046 407.335,75.528 386.348,60.786 364.774,52.833 c -20.155,-7.41 -40.564,-8.74 -59.953,-4.248 -18.058,4.204 -35.196,13.466 -50.603,27.62 -14.42,13.21 -26.09,29.626 -35.185,47.807 a 233.224,233.224 0 0 0 -19.29,56.57 286.023,286.023 0 0 0 -5.856,60.674 l 22.582,-3.16 a 209.143,209.143 0 0 1 5.047,-40.344 166.26,166.26 0 0 1 15.972,-42.926 c 7.365,-13.4 16.716,-25.124 27.997,-34.087 11.89,-9.44 24.88,-14.986 38.3,-16.64 14.165,-1.774 28.773,0.744 42.938,7.51 14.863,7.1 29.084,18.78 41.485,34.774 12.856,16.572 23.515,37.46 30.66,61.917 a 225.515,225.515 0 0 1 8.74,74.65 c -1.254,24.05 -6.4,46.422 -14.72,65.656 -8.042,18.58 -18.857,33.887 -31.824,44.88 -12.313,10.47 -26.345,16.915 -41.463,18.656 a 76.226,76.226 0 0 1 -41.163,-7.1 c -12.313,-5.722 -23.826,-14.485 -34.03,-25.51 a 162.212,162.212 0 0 1 -25.724,-37.637 204.584,204.584 0 0 1 -14.542,-38.578 l -22.484,3.106 a 280.965,280.965 0 0 0 19.966,57.823 228.2,228.2 0 0 0 32.168,50.092 c 12.99,15.186 27.82,27.83 43.914,36.793 17.18,9.574 36.027,15.064 55.705,14.865 21.263,-0.21 41.44,-7.022 59.52,-19.778 19.356,-13.654 36.005,-33.897 48.617,-59.432 13.244,-26.82 21.697,-58.788 24.048,-93.64 A 300.742,300.742 0 0 0 472.74,184.386 Z"
       fill="#000000"
       fill-opacity="1"
       stroke="#ffffff"
       stroke-opacity="1"
       stroke-width="2"
       id="path10715"
       style="fill:#ffffff;fill-opacity:1;stroke:#000000;stroke-opacity:1" />
  </g>
</svg>
