<?xml version="1.0" encoding="UTF-8" standalone="no"?>
<svg
   width="24"
   height="24"
   viewBox="0 0 24 24"
   fill="none"
   stroke="currentColor"
   stroke-width="2"
   stroke-linecap="round"
   stroke-linejoin="round"
   class="feather feather-arrow-down-circle"
   version="1.1"
   id="svg52821"
   sodipodi:docname="delete_icon.svg"
   inkscape:version="1.2.2 (732a01da63, 2022-12-09)"
   xmlns:inkscape="http://www.inkscape.org/namespaces/inkscape"
   xmlns:sodipodi="http://sodipodi.sourceforge.net/DTD/sodipodi-0.dtd"
   xmlns="http://www.w3.org/2000/svg"
   xmlns:svg="http://www.w3.org/2000/svg">
  <defs
     id="defs52825" />
  <sodipodi:namedview
     id="namedview52823"
     pagecolor="#ffffff"
     bordercolor="#666666"
     borderopacity="1.0"
     inkscape:pageshadow="2"
     inkscape:pageopacity="0.0"
     inkscape:pagecheckerboard="0"
     showgrid="false"
     inkscape:zoom="36.291667"
     inkscape:cx="11.297359"
     inkscape:cy="12.013777"
     inkscape:window-width="2560"
     inkscape:window-height="1057"
     inkscape:window-x="-8"
     inkscape:window-y="-8"
     inkscape:window-maximized="1"
     inkscape:current-layer="svg52821"
     inkscape:showpageshadow="2"
     inkscape:deskcolor="#d1d1d1" />
  <line
     x1="8"
     y1="12"
     x2="16"
     y2="12"
     id="line37-6"
     style="display:inline;fill:#f0f0f0;fill-opacity:1" />
  <path
     style="fill:#f0f0f0;fill-opacity:1;stroke-width:0.055;stroke-miterlimit:4;stroke-dasharray:none"
     d="M 7.7909324,12.962269 C 7.5084509,12.89509 7.2344805,12.673679 7.1116692,12.413318 7.0503765,12.283377 7.0401837,12.224444 7.0401837,12 c 0,-0.224444 0.010193,-0.283377 0.071485,-0.413318 0.094805,-0.200987 0.2739559,-0.375134 0.4933825,-0.479599 l 0.1791044,-0.08527 H 12 16.215844 l 0.179104,0.08527 c 0.219427,0.104465 0.398578,0.278612 0.493383,0.479599 0.06129,0.129941 0.07148,0.188874 0.07148,0.413318 0,0.224444 -0.01019,0.283377 -0.07148,0.413318 -0.09481,0.200987 -0.273956,0.375134 -0.493383,0.479599 l -0.179104,0.08527 -4.160735,0.0043 c -2.3622946,0.0025 -4.2054465,-0.0063 -4.2641766,-0.02026 z"
     id="path61903" />
</svg>
