<?xml version="1.0" encoding="UTF-8" standalone="no"?>
<svg
   width="24"
   height="23"
   fill="currentColor"
   class="bi bi-eye-fill"
   viewBox="0 0 24 23"
   version="1.1"
   id="svg2696"
   sodipodi:docname="eye-fill.svg"
   inkscape:version="1.2.2 (732a01da63, 2022-12-09)"
   xmlns:inkscape="http://www.inkscape.org/namespaces/inkscape"
   xmlns:sodipodi="http://sodipodi.sourceforge.net/DTD/sodipodi-0.dtd"
   xmlns="http://www.w3.org/2000/svg"
   xmlns:svg="http://www.w3.org/2000/svg">
  <defs
     id="defs2700" />
  <sodipodi:namedview
     id="namedview2698"
     pagecolor="#ffffff"
     bordercolor="#666666"
     borderopacity="1.0"
     inkscape:showpageshadow="2"
     inkscape:pageopacity="0.0"
     inkscape:pagecheckerboard="0"
     inkscape:deskcolor="#d1d1d1"
     showgrid="false"
     inkscape:zoom="35.583333"
     inkscape:cx="7.5175644"
     inkscape:cy="12"
     inkscape:window-width="2560"
     inkscape:window-height="1057"
     inkscape:window-x="-8"
     inkscape:window-y="-8"
     inkscape:window-maximized="1"
     inkscape:current-layer="svg2696" />
  <path
     d="m 14.5,11.5 a 2.5,2.5 0 1 1 -5,0 2.5,2.5 0 0 1 5,0 z"
     id="path2692"
     style="fill:#ffffff;fill-opacity:1;stroke:#000000;stroke-opacity:1;stroke-width:0.1;stroke-dasharray:none" />
  <path
     d="m 4,11.5 c 0,0 3,-5.5 8,-5.5 5,0 8,5.5 8,5.5 0,0 -3,5.5 -8,5.5 -5,0 -8,-5.5 -8,-5.5 z m 8,3.5 a 3.5,3.5 0 1 0 0,-7 3.5,3.5 0 0 0 0,7 z"
     id="path2694"
     style="fill:#ffffff;fill-opacity:1;stroke:#000000;stroke-opacity:1;stroke-width:0.1;stroke-dasharray:none" />
</svg>
