<?xml version="1.0" encoding="UTF-8" standalone="no"?>
<svg
   width="24"
   height="24"
   fill="currentColor"
   class="bi bi-sort-alpha-down-alt"
   viewBox="0 0 24 24"
   version="1.1"
   id="svg5015"
   sodipodi:docname="sort-alpha-down-alt.svg"
   inkscape:version="1.2.2 (732a01da63, 2022-12-09)"
   xmlns:inkscape="http://www.inkscape.org/namespaces/inkscape"
   xmlns:sodipodi="http://sodipodi.sourceforge.net/DTD/sodipodi-0.dtd"
   xmlns="http://www.w3.org/2000/svg"
   xmlns:svg="http://www.w3.org/2000/svg">
  <defs
     id="defs5019" />
  <sodipodi:namedview
     id="namedview5017"
     pagecolor="#ffffff"
     bordercolor="#666666"
     borderopacity="1.0"
     inkscape:showpageshadow="2"
     inkscape:pageopacity="0.0"
     inkscape:pagecheckerboard="0"
     inkscape:deskcolor="#d1d1d1"
     showgrid="false"
     inkscape:zoom="54.8125"
     inkscape:cx="8"
     inkscape:cy="8.009122"
     inkscape:window-width="2560"
     inkscape:window-height="1057"
     inkscape:window-x="-8"
     inkscape:window-y="-8"
     inkscape:window-maximized="1"
     inkscape:current-layer="svg5015" />
  <g
     id="g6956"
     transform="matrix(1.7757608,0,0,1.7757608,-1.2322949,-1.9121948)"
     style="fill:#ffffff;fill-opacity:1;stroke:#000000;stroke-width:0.0560598;stroke-dasharray:none;stroke-opacity:1">
    <path
       d="M 12.96,7 H 9.028 V 6.309 l 2.579,-3.72 V 2.535 H 9.098 V 1.668 h 3.785 v 0.691 l -2.567,3.72 v 0.054 h 2.645 V 7 Z"
       id="path5009"
       style="fill:#ffffff;fill-opacity:1;stroke:#000000;stroke-width:0.0560598;stroke-dasharray:none;stroke-opacity:1" />
    <path
       fill-rule="evenodd"
       d="M 10.082,12.629 9.664,14 H 8.598 l 1.789,-5.332 h 1.234 L 13.402,14 h -1.12 L 11.863,12.629 Z M 11.652,11.844 11,9.688 h -0.047 l -0.652,2.156 z"
       id="path5011"
       style="fill:#ffffff;fill-opacity:1;stroke:#000000;stroke-width:0.0560598;stroke-dasharray:none;stroke-opacity:1" />
    <path
       d="m 4.5,2.5 a 0.5,0.5 0 0 0 -1,0 v 9.793 L 2.354,11.146 a 0.5006316,0.5006316 0 0 0 -0.708,0.708 l 2,1.999 0.007,0.007 a 0.497,0.497 0 0 0 0.7,-0.006 l 2,-2 A 0.50027817,0.50027817 0 0 0 5.646,11.146 L 4.5,12.293 Z"
       id="path5013"
       style="fill:#ffffff;fill-opacity:1;stroke:#000000;stroke-width:0.0560598;stroke-dasharray:none;stroke-opacity:1" />
  </g>
</svg>
