<?xml version="1.0" encoding="UTF-8" standalone="no"?>
<svg
   width="24"
   height="24"
   fill="currentColor"
   class="bi bi-sort-numeric-down-alt"
   viewBox="0 0 24 24"
   version="1.1"
   id="svg2650"
   sodipodi:docname="sort-numeric-down-alt.svg"
   inkscape:version="1.2.2 (732a01da63, 2022-12-09)"
   xmlns:inkscape="http://www.inkscape.org/namespaces/inkscape"
   xmlns:sodipodi="http://sodipodi.sourceforge.net/DTD/sodipodi-0.dtd"
   xmlns="http://www.w3.org/2000/svg"
   xmlns:svg="http://www.w3.org/2000/svg">
  <defs
     id="defs2654" />
  <sodipodi:namedview
     id="namedview2652"
     pagecolor="#ffffff"
     bordercolor="#666666"
     borderopacity="1.0"
     inkscape:showpageshadow="2"
     inkscape:pageopacity="0.0"
     inkscape:pagecheckerboard="0"
     inkscape:deskcolor="#d1d1d1"
     showgrid="false"
     inkscape:zoom="35.583333"
     inkscape:cx="11.985948"
     inkscape:cy="12"
     inkscape:window-width="2560"
     inkscape:window-height="1057"
     inkscape:window-x="-8"
     inkscape:window-y="-8"
     inkscape:window-maximized="1"
     inkscape:current-layer="svg2650" />
  <g
     id="g3138"
     transform="matrix(1.7606287,0,0,1.7606287,-1.1997462,-1.7003278)"
     style="fill:#ffffff;fill-opacity:1;stroke:#000000;stroke-width:0.0565417;stroke-dasharray:none;stroke-opacity:1">
    <path
       fill-rule="evenodd"
       d="M 11.36,7.098 C 10.223,7.098 9.652,6.441 9.598,5.82 h 1.004 c 0.058,0.223 0.343,0.45 0.773,0.45 0.824,0 1.164,-0.829 1.133,-1.856 h -0.059 c -0.148,0.39 -0.57,0.742 -1.261,0.742 -0.91,0 -1.72,-0.613 -1.72,-1.758 0,-1.148 0.848,-1.836 1.973,-1.836 1.09,0 2.063,0.637 2.063,2.688 0,1.867 -0.723,2.848 -2.145,2.848 z m 0.062,-2.735 c 0.504,0 0.933,-0.336 0.933,-0.972 0,-0.633 -0.398,-1.008 -0.94,-1.008 -0.52,0 -0.927,0.375 -0.927,1 0,0.64 0.418,0.98 0.934,0.98 z"
       id="path2646"
       style="fill:#ffffff;fill-opacity:1;stroke:#000000;stroke-width:0.0565417;stroke-dasharray:none;stroke-opacity:1" />
    <path
       d="M 12.438,8.668 V 14 H 11.39 V 9.684 h -0.051 l -1.211,0.859 V 9.574 L 11.39,8.668 h 1.046 z M 4.5,2.5 a 0.5,0.5 0 0 0 -1,0 v 9.793 L 2.354,11.146 a 0.5006316,0.5006316 0 0 0 -0.708,0.708 l 2,1.999 0.007,0.007 a 0.497,0.497 0 0 0 0.7,-0.006 l 2,-2 A 0.50027817,0.50027817 0 0 0 5.646,11.146 L 4.5,12.293 Z"
       id="path2648"
       style="fill:#ffffff;fill-opacity:1;stroke:#000000;stroke-width:0.0565417;stroke-dasharray:none;stroke-opacity:1" />
  </g>
</svg>
