<?xml version="1.0" encoding="UTF-8" standalone="no"?>
<svg
   width="24"
   height="24"
   viewBox="0 0 24 24"
   fill="none"
   stroke="currentColor"
   stroke-width="2"
   stroke-linecap="round"
   stroke-linejoin="round"
   class="feather feather-arrow-down-circle"
   version="1.1"
   id="svg52821"
   sodipodi:docname="arrow-down-circle.svg"
   inkscape:version="1.1.2 (b8e25be833, 2022-02-05)"
   xmlns:inkscape="http://www.inkscape.org/namespaces/inkscape"
   xmlns:sodipodi="http://sodipodi.sourceforge.net/DTD/sodipodi-0.dtd"
   xmlns="http://www.w3.org/2000/svg"
   xmlns:svg="http://www.w3.org/2000/svg">
  <defs
     id="defs52825" />
  <sodipodi:namedview
     id="namedview52823"
     pagecolor="#ffffff"
     bordercolor="#666666"
     borderopacity="1.0"
     inkscape:pageshadow="2"
     inkscape:pageopacity="0.0"
     inkscape:pagecheckerboard="0"
     showgrid="false"
     inkscape:zoom="36.291667"
     inkscape:cx="12"
     inkscape:cy="12.013777"
     inkscape:window-width="2560"
     inkscape:window-height="1057"
     inkscape:window-x="-8"
     inkscape:window-y="-8"
     inkscape:window-maximized="1"
     inkscape:current-layer="svg52821" />
  <circle
     cx="12"
     cy="12"
     r="10"
     id="circle52815" />
  <polyline
     points="8 12 12 16 16 12"
     id="polyline52817" />
  <line
     x1="12"
     y1="8"
     x2="12"
     y2="16"
     id="line52819" />
  <path
     style="fill:#f0f0f0;stroke-width:0.0551091"
     d="M 11.324914,22.965027 C 7.4360145,22.727379 3.9424023,20.419832 2.1913449,16.932262 1.6053134,15.765067 1.2810792,14.702169 1.0953899,13.339524 1.0434355,12.958267 1.0348852,12.76897 1.0348852,12 c 0,-0.965643 0.03239,-1.32903 0.1909373,-2.1421595 C 1.7339041,7.2520833 3.2349851,4.863986 5.3911988,3.2310675 8.1420794,1.1478028 11.709843,0.49031829 15.055959,1.4499994 c 2.622022,0.7520076 4.918974,2.5139346 6.335768,4.8599891 0.813402,1.3469026 1.291488,2.7218847 1.512682,4.3504875 0.05169,0.380584 0.0603,0.571911 0.0603,1.339524 0,0.772626 -0.0084,0.957916 -0.06154,1.350172 -0.172708,1.275968 -0.484734,2.322703 -1.023199,3.432465 -1.950449,4.019823 -6.106658,6.454229 -10.55506,6.18239 z m 1.811531,-2.021697 c 2.829568,-0.368039 5.273392,-2.005001 6.702102,-4.489311 1.052057,-1.829367 1.416075,-4.073618 1.004527,-6.193133 C 20.314676,7.5395771 18.524647,5.1812355 16.050517,3.9467463 15.103861,3.4744043 14.195091,3.1970932 13.12296,3.0534026 12.619727,2.9859577 11.366379,2.9868739 10.870264,3.0550492 9.7788226,3.2050337 8.8899254,3.4762103 7.9559512,3.9441214 6.220444,4.8135918 4.8191562,6.2158859 3.9396956,7.9632606 2.8232785,10.181438 2.6826522,12.828423 3.5572374,15.162206 c 0.9817148,2.619651 3.1487175,4.654372 5.8178093,5.462668 0.5822147,0.176315 1.2895433,0.308174 1.9774213,0.368627 0.281789,0.02476 1.463326,-0.0085 1.783977,-0.05017 z"
     id="path52864" />
  <path
     style="fill:#f0f0f0;stroke-width:0.0551091"
     d="m 11.691385,16.937713 c -0.07881,-0.02814 -0.190405,-0.0839 -0.247991,-0.123904 -0.05759,-0.04001 -1.037119,-1.006186 -2.1767375,-2.147064 C 6.8991424,12.296617 7.0401837,12.465548 7.0401837,12 c 0,-0.224444 0.010193,-0.283377 0.071485,-0.413318 0.094937,-0.201268 0.2742188,-0.375366 0.4933825,-0.479118 0.1538405,-0.07283 0.2101986,-0.08475 0.3995407,-0.08449 0.4047003,5.43e-4 0.3771856,-0.0208 1.7841562,1.384229 l 1.2330659,1.231368 v -2.895322 c 0,-3.2023047 -0.0093,-3.0318885 0.179856,-3.3064914 C 11.371211,7.1906887 11.706293,7.0126292 12,7.0126292 c 0.293707,0 0.628789,0.1780595 0.79833,0.4242254 0.189126,0.2746029 0.179856,0.1041867 0.179856,3.3064914 v 2.895322 L 14.211251,12.4073 c 1.406971,-1.405034 1.379456,-1.383687 1.784157,-1.384229 0.189342,-2.48e-4 0.2457,0.01167 0.39954,0.08449 0.219164,0.103752 0.398446,0.27785 0.493383,0.479118 0.06129,0.129941 0.07148,0.188874 0.07148,0.413318 0,0.46661 0.146569,0.2917 -2.267648,2.706138 -1.905195,1.905368 -2.129765,2.121099 -2.278305,2.188621 -0.217891,0.09905 -0.515778,0.116758 -0.722478,0.04295 z"
     id="path52903" />
</svg>
