<?xml version="1.0" encoding="UTF-8" standalone="no"?>
<svg
   width="16"
   height="16"
   fill="currentColor"
   class="bi bi-arrow-left"
   viewBox="0 0 16 16"
   version="1.1"
   id="svg834"
   sodipodi:docname="arrow-left.svg"
   inkscape:label="Outline"
   inkscape:version="1.1.2 (b8e25be833, 2022-02-05)"
   xmlns:inkscape="http://www.inkscape.org/namespaces/inkscape"
   xmlns:sodipodi="http://sodipodi.sourceforge.net/DTD/sodipodi-0.dtd"
   xmlns="http://www.w3.org/2000/svg"
   xmlns:svg="http://www.w3.org/2000/svg">
  <defs
     id="defs838" />
  <sodipodi:namedview
     id="namedview836"
     pagecolor="#ffffff"
     bordercolor="#666666"
     borderopacity="1.0"
     inkscape:pageshadow="2"
     inkscape:pageopacity="0.0"
     inkscape:pagecheckerboard="0"
     showgrid="false"
     inkscape:zoom="53"
     inkscape:cx="7.9716981"
     inkscape:cy="8"
     inkscape:window-width="2560"
     inkscape:window-height="1057"
     inkscape:window-x="-8"
     inkscape:window-y="-8"
     inkscape:window-maximized="1"
     inkscape:current-layer="layer2" />
  <g
     inkscape:groupmode="layer"
     id="layer2"
     inkscape:label="Outline">
    <path
       fill-rule="evenodd"
       d="M 15,8 A 0.5,0.5 0 0 0 14.5,7.5 H 2.707 L 5.854,4.354 A 0.5006316,0.5006316 0 1 0 5.146,3.646 l -4,4 a 0.5,0.5 0 0 0 0,0.708 l 4,4 A 0.5006316,0.5006316 0 0 0 5.854,11.646 L 2.707,8.5 H 14.5 A 0.5,0.5 0 0 0 15,8 Z"
       id="path832"
       style="fill:#000000;fill-opacity:1;stroke:#000000;stroke-width:1;stroke-miterlimit:4;stroke-dasharray:none;stroke-opacity:1" />
  </g>
  <g
     inkscape:groupmode="layer"
     id="layer1"
     inkscape:label="Inline">
    <path
       fill-rule="evenodd"
       d="M 15,8 A 0.5,0.5 0 0 0 14.5,7.5 H 2.707 L 5.854,4.354 A 0.5006316,0.5006316 0 1 0 5.146,3.646 l -4,4 a 0.5,0.5 0 0 0 0,0.708 l 4,4 A 0.5006316,0.5006316 0 0 0 5.854,11.646 L 2.707,8.5 H 14.5 A 0.5,0.5 0 0 0 15,8 Z"
       id="path1118"
       style="fill:#e1e1e1;fill-opacity:1;stroke:none;stroke-width:1.00157;stroke-miterlimit:4;stroke-dasharray:none;stroke-opacity:1" />
  </g>
</svg>
