<?xml version="1.0" encoding="UTF-8" standalone="no"?>
<svg
   width="24"
   height="24"
   viewBox="0 0 24 24"
   fill="none"
   stroke="currentColor"
   stroke-width="2"
   stroke-linecap="round"
   stroke-linejoin="round"
   class="feather feather-arrow-down-circle"
   version="1.1"
   id="svg52821"
   sodipodi:docname="delete_icon.svg"
   inkscape:version="1.1.2 (b8e25be833, 2022-02-05)"
   xmlns:inkscape="http://www.inkscape.org/namespaces/inkscape"
   xmlns:sodipodi="http://sodipodi.sourceforge.net/DTD/sodipodi-0.dtd"
   xmlns="http://www.w3.org/2000/svg"
   xmlns:svg="http://www.w3.org/2000/svg">
  <defs
     id="defs52825" />
  <sodipodi:namedview
     id="namedview52823"
     pagecolor="#ffffff"
     bordercolor="#666666"
     borderopacity="1.0"
     inkscape:pageshadow="2"
     inkscape:pageopacity="0.0"
     inkscape:pagecheckerboard="0"
     showgrid="false"
     inkscape:zoom="36.291667"
     inkscape:cx="11.269805"
     inkscape:cy="12.013777"
     inkscape:window-width="2560"
     inkscape:window-height="1057"
     inkscape:window-x="-8"
     inkscape:window-y="-8"
     inkscape:window-maximized="1"
     inkscape:current-layer="svg52821" />
  <circle
     cx="12"
     cy="12"
     r="10"
     id="circle52815" />
  <path
     style="fill:#f0f0f0;stroke-width:0.055;stroke-miterlimit:4;stroke-dasharray:none"
     d="M 11.324914,22.965027 C 7.4360145,22.727379 3.9424023,20.419832 2.1913449,16.932262 1.6053134,15.765067 1.2810792,14.702169 1.0953899,13.339524 1.0434355,12.958267 1.0348852,12.76897 1.0348852,12 c 0,-0.965643 0.03239,-1.32903 0.1909373,-2.1421595 C 1.7339041,7.2520833 3.2349851,4.863986 5.3911988,3.2310675 8.1420794,1.1478028 11.709843,0.49031829 15.055959,1.4499994 c 2.622022,0.7520076 4.918974,2.5139346 6.335768,4.8599891 0.813402,1.3469026 1.291488,2.7218847 1.512682,4.3504875 0.05169,0.380584 0.0603,0.571911 0.0603,1.339524 0,0.772626 -0.0084,0.957916 -0.06154,1.350172 -0.172708,1.275968 -0.484734,2.322703 -1.023199,3.432465 -1.950449,4.019823 -6.106658,6.454229 -10.55506,6.18239 z m 1.811531,-2.021697 c 2.829568,-0.368039 5.273392,-2.005001 6.702102,-4.489311 1.052057,-1.829367 1.416075,-4.073618 1.004527,-6.193133 C 20.314676,7.5395771 18.524647,5.1812355 16.050517,3.9467463 15.103861,3.4744043 14.195091,3.1970932 13.12296,3.0534026 12.619727,2.9859577 11.366379,2.9868739 10.870264,3.0550492 9.7788226,3.2050337 8.8899254,3.4762103 7.9559512,3.9441214 6.220444,4.8135918 4.8191562,6.2158859 3.9396956,7.9632606 2.8232785,10.181438 2.6826522,12.828423 3.5572374,15.162206 c 0.9817148,2.619651 3.1487175,4.654372 5.8178093,5.462668 0.5822147,0.176315 1.2895433,0.308174 1.9774213,0.368627 0.281789,0.02476 1.463326,-0.0085 1.783977,-0.05017 z"
     id="path52864" />
  <line
     x1="8"
     y1="12"
     x2="16"
     y2="12"
     id="line37-6"
     style="display:inline;fill:#f0f0f0;fill-opacity:1" />
  <path
     style="fill:#f0f0f0;fill-opacity:1;stroke-width:0.055;stroke-miterlimit:4;stroke-dasharray:none"
     d="M 7.7909324,12.962269 C 7.5084509,12.89509 7.2344805,12.673679 7.1116692,12.413318 7.0503765,12.283377 7.0401837,12.224444 7.0401837,12 c 0,-0.224444 0.010193,-0.283377 0.071485,-0.413318 0.094805,-0.200987 0.2739559,-0.375134 0.4933825,-0.479599 l 0.1791044,-0.08527 H 12 16.215844 l 0.179104,0.08527 c 0.219427,0.104465 0.398578,0.278612 0.493383,0.479599 0.06129,0.129941 0.07148,0.188874 0.07148,0.413318 0,0.224444 -0.01019,0.283377 -0.07148,0.413318 -0.09481,0.200987 -0.273956,0.375134 -0.493383,0.479599 l -0.179104,0.08527 -4.160735,0.0043 c -2.3622946,0.0025 -4.2054465,-0.0063 -4.2641766,-0.02026 z"
     id="path61903" />
</svg>
