<?xml version="1.0" encoding="UTF-8" standalone="no"?>
<svg
   width="24"
   height="24"
   viewBox="0 0 24 24"
   fill="none"
   stroke="currentColor"
   stroke-width="2"
   stroke-linecap="round"
   stroke-linejoin="round"
   class="feather feather-edit-3"
   version="1.1"
   id="svg53487"
   sodipodi:docname="edit-3_dark.svg"
   inkscape:version="1.1.2 (b8e25be833, 2022-02-05)"
   xmlns:inkscape="http://www.inkscape.org/namespaces/inkscape"
   xmlns:sodipodi="http://sodipodi.sourceforge.net/DTD/sodipodi-0.dtd"
   xmlns="http://www.w3.org/2000/svg"
   xmlns:svg="http://www.w3.org/2000/svg">
  <defs
     id="defs53491">
    <filter
       style="color-interpolation-filters:sRGB;"
       inkscape:label="Invert"
       id="filter1633"
       x="-1.7366037e-05"
       y="-1.6836132e-05"
       width="1.0000343"
       height="1.0000338">
      <feColorMatrix
         type="hueRotate"
         values="180"
         result="color1"
         id="feColorMatrix1629" />
      <feColorMatrix
         values="-1 0 0 0 1 0 -1 0 0 1 0 0 -1 0 1 -0.21 -0.72 -0.07 2 0 "
         result="fbSourceGraphic"
         id="feColorMatrix1631" />
      <feColorMatrix
         result="fbSourceGraphicAlpha"
         in="fbSourceGraphic"
         values="0 0 0 -1 0 0 0 0 -1 0 0 0 0 -1 0 0 0 0 1 0"
         id="feColorMatrix844" />
      <feColorMatrix
         id="feColorMatrix846"
         type="hueRotate"
         values="180"
         result="color1"
         in="fbSourceGraphic" />
      <feColorMatrix
         id="feColorMatrix848"
         values="-1 0 0 0 1 0 -1 0 0 1 0 0 -1 0 1 -0.21 -0.72 -0.07 2 0 "
         result="color2" />
    </filter>
    <filter
       style="color-interpolation-filters:sRGB;"
       inkscape:label="Invert"
       id="filter1639"
       x="-1.6887381e-05"
       y="-1.6813564e-05"
       width="1.0000337"
       height="1.0000338">
      <feColorMatrix
         type="hueRotate"
         values="180"
         result="color1"
         id="feColorMatrix1635" />
      <feColorMatrix
         values="-1 0 0 0 1 0 -1 0 0 1 0 0 -1 0 1 -0.21 -0.72 -0.07 2 0 "
         result="fbSourceGraphic"
         id="feColorMatrix1637" />
      <feColorMatrix
         result="fbSourceGraphicAlpha"
         in="fbSourceGraphic"
         values="0 0 0 -1 0 0 0 0 -1 0 0 0 0 -1 0 0 0 0 1 0"
         id="feColorMatrix850" />
      <feColorMatrix
         id="feColorMatrix852"
         type="hueRotate"
         values="180"
         result="color1"
         in="fbSourceGraphic" />
      <feColorMatrix
         id="feColorMatrix854"
         values="-1 0 0 0 1 0 -1 0 0 1 0 0 -1 0 1 -0.21 -0.72 -0.07 2 0 "
         result="color2" />
    </filter>
    <filter
       style="color-interpolation-filters:sRGB;"
       inkscape:label="Invert"
       id="filter1645"
       x="-1.2637467e-05"
       y="-1.2984362e-05"
       width="1.0000256"
       height="1.000026">
      <feColorMatrix
         type="hueRotate"
         values="180"
         result="color1"
         id="feColorMatrix1641" />
      <feColorMatrix
         values="-1 0 0 0 1 0 -1 0 0 1 0 0 -1 0 1 -0.21 -0.72 -0.07 2 0 "
         result="fbSourceGraphic"
         id="feColorMatrix1643" />
      <feColorMatrix
         result="fbSourceGraphicAlpha"
         in="fbSourceGraphic"
         values="0 0 0 -1 0 0 0 0 -1 0 0 0 0 -1 0 0 0 0 1 0"
         id="feColorMatrix856" />
      <feColorMatrix
         id="feColorMatrix858"
         type="hueRotate"
         values="180"
         result="color1"
         in="fbSourceGraphic" />
      <feColorMatrix
         id="feColorMatrix860"
         values="-1 0 0 0 1 0 -1 0 0 1 0 0 -1 0 1 -0.21 -0.72 -0.07 2 0 "
         result="color2" />
    </filter>
    <filter
       style="color-interpolation-filters:sRGB;"
       inkscape:label="Invert"
       id="filter1651"
       x="-2.2564795e-05"
       y="-0.00012776008"
       width="1.0000452"
       height="1.0002555">
      <feColorMatrix
         type="hueRotate"
         values="180"
         result="color1"
         id="feColorMatrix1647" />
      <feColorMatrix
         values="-1 0 0 0 1 0 -1 0 0 1 0 0 -1 0 1 -0.21 -0.72 -0.07 2 0 "
         result="fbSourceGraphic"
         id="feColorMatrix1649" />
      <feColorMatrix
         result="fbSourceGraphicAlpha"
         in="fbSourceGraphic"
         values="0 0 0 -1 0 0 0 0 -1 0 0 0 0 -1 0 0 0 0 1 0"
         id="feColorMatrix862" />
      <feColorMatrix
         id="feColorMatrix864"
         type="hueRotate"
         values="180"
         result="color1"
         in="fbSourceGraphic" />
      <feColorMatrix
         id="feColorMatrix866"
         values="-1 0 0 0 1 0 -1 0 0 1 0 0 -1 0 1 -0.21 -0.72 -0.07 2 0 "
         result="color2" />
    </filter>
    <filter
       style="color-interpolation-filters:sRGB;"
       inkscape:label="Invert"
       id="filter1657"
       x="-0.058404525"
       y="-0.060615933"
       width="1.1190205"
       height="1.1190205">
      <feColorMatrix
         type="hueRotate"
         values="180"
         result="color1"
         id="feColorMatrix1653" />
      <feColorMatrix
         values="-1 0 0 0 1 0 -1 0 0 1 0 0 -1 0 1 -0.21 -0.72 -0.07 2 0 "
         result="fbSourceGraphic"
         id="feColorMatrix1655" />
      <feColorMatrix
         result="fbSourceGraphicAlpha"
         in="fbSourceGraphic"
         values="0 0 0 -1 0 0 0 0 -1 0 0 0 0 -1 0 0 0 0 1 0"
         id="feColorMatrix868" />
      <feColorMatrix
         id="feColorMatrix870"
         type="hueRotate"
         values="180"
         result="color1"
         in="fbSourceGraphic" />
      <feColorMatrix
         id="feColorMatrix872"
         values="-1 0 0 0 1 0 -1 0 0 1 0 0 -1 0 1 -0.21 -0.72 -0.07 2 0 "
         result="color2" />
    </filter>
    <filter
       style="color-interpolation-filters:sRGB;"
       inkscape:label="Invert"
       id="filter1663"
       x="-0.11111111"
       y="-inf"
       width="1.2222222"
       height="inf">
      <feColorMatrix
         type="hueRotate"
         values="180"
         result="color1"
         id="feColorMatrix1659" />
      <feColorMatrix
         values="-1 0 0 0 1 0 -1 0 0 1 0 0 -1 0 1 -0.21 -0.72 -0.07 2 0 "
         result="fbSourceGraphic"
         id="feColorMatrix1661" />
      <feColorMatrix
         result="fbSourceGraphicAlpha"
         in="fbSourceGraphic"
         values="0 0 0 -1 0 0 0 0 -1 0 0 0 0 -1 0 0 0 0 1 0"
         id="feColorMatrix874" />
      <feColorMatrix
         id="feColorMatrix876"
         type="hueRotate"
         values="180"
         result="color1"
         in="fbSourceGraphic" />
      <feColorMatrix
         id="feColorMatrix878"
         values="-1 0 0 0 1 0 -1 0 0 1 0 0 -1 0 1 -0.21 -0.72 -0.07 2 0 "
         result="color2" />
    </filter>
  </defs>
  <sodipodi:namedview
     id="namedview53489"
     pagecolor="#ffffff"
     bordercolor="#666666"
     borderopacity="1.0"
     inkscape:pageshadow="2"
     inkscape:pageopacity="0.0"
     inkscape:pagecheckerboard="0"
     showgrid="false"
     inkscape:zoom="36.291667"
     inkscape:cx="10.925373"
     inkscape:cy="12.013777"
     inkscape:window-width="2560"
     inkscape:window-height="1057"
     inkscape:window-x="-8"
     inkscape:window-y="-8"
     inkscape:window-maximized="1"
     inkscape:current-layer="svg53487" />
  <path
     d="M12 20h9"
     id="path53483"
     style="filter:url(#filter1663)" />
  <path
     d="M16.5 3.5a2.121 2.121 0 0 1 3 3L7 19l-4 1 1-4L16.5 3.5z"
     id="path53485"
     style="filter:url(#filter1657)" />
  <path
     style="fill:#000000;stroke-width:0.000495982;filter:url(#filter1651);fill-opacity:1"
     d="m 11.717666,20.94254 c -0.58431,-0.182534 -0.869048,-0.856746 -0.586048,-1.387663 0.103227,-0.193659 0.266631,-0.352549 0.46288,-0.450097 l 0.129957,-0.0646 h 4.780711 4.780712 l 0.123996,0.06566 c 0.289305,0.153208 0.452539,0.349886 0.538455,0.648773 0.139728,0.486094 -0.153575,1.011135 -0.660471,1.182303 -0.124623,0.04208 -0.518971,0.0457 -4.794489,0.04401 -3.789138,-0.0015 -4.680536,-0.0087 -4.775703,-0.03839 z"
     id="path53530" />
  <path
     style="fill:#000000;stroke-width:0.000495982;filter:url(#filter1645);fill-opacity:1"
     d="M 2.7003444,20.932387 C 2.4153918,20.826397 2.2243306,20.653686 2.1065609,20.395629 1.9611398,20.076984 1.9489771,20.150686 2.5325919,17.814007 2.8221559,16.65465 3.0860584,15.644087 3.119042,15.568312 3.1701984,15.450788 4.1005652,14.50801 9.4494371,9.1534688 12.898171,5.7010799 15.822765,2.7871878 15.948536,2.6781531 16.333582,2.3443436 16.752998,2.1190888 17.21808,1.9963224 c 1.414456,-0.3733705 2.91539,0.317267 3.562526,1.6392557 0.3568,0.7288824 0.419356,1.495213 0.186229,2.2813541 -0.07927,0.2673222 -0.306318,0.7049508 -0.493694,0.9515934 -0.09651,0.1270404 -2.739438,2.7886754 -6.549392,6.5957574 -6.2014093,6.196732 -6.392317,6.384492 -6.5499821,6.441967 -0.089319,0.03256 -1.0787061,0.288099 -2.1986381,0.567864 -2.1606591,0.539745 -2.2241411,0.5515 -2.4747844,0.458273 z M 5.4378679,18.37654 6.4940498,18.112437 12.722352,11.880558 c 7.08329,-7.0873576 6.386718,-6.3370498 6.386718,-6.8794099 0,-0.2861169 -0.0072,-0.3321718 -0.07385,-0.4744358 -0.08616,-0.18383 -0.283122,-0.404679 -0.446074,-0.5001752 -0.307945,-0.1804682 -0.733112,-0.2041364 -1.064464,-0.059256 -0.172108,0.075253 -0.42236,0.3213863 -6.406858,6.3014359 l -6.227753,6.223124 -0.2587018,1.039958 c -0.142286,0.571977 -0.2643154,1.055457 -0.2711763,1.074401 -0.00686,0.01894 -0.00483,0.03444 0.00451,0.03444 0.00934,0 0.4922648,-0.118846 1.0731645,-0.264103 z"
     id="path53569" />
  <path
     style="fill:#f0f0f0;stroke-width:0.000495982;filter:url(#filter1639)"
     d="m 4.4087256,18.571485 c 0,-0.0077 0.1131159,-0.469609 0.2513686,-1.026406 l 0.2513685,-1.012358 6.1481723,-6.154456 c 3.381495,-3.3849502 6.218669,-6.207352 6.304831,-6.2720034 0.431557,-0.3238164 1.044964,-0.2650014 1.424794,0.1366128 0.194887,0.2060639 0.287479,0.4129481 0.301529,0.6737273 0.0158,0.2931871 -0.03069,0.4651721 -0.18109,0.6699359 -0.06963,0.094798 -2.897689,2.945671 -6.28458,6.3352724 L 6.4671347,18.084723 5.4657558,18.335128 C 4.466068,18.585111 4.4087256,18.597933 4.4087256,18.571485 Z"
     id="path53608"
     inkscape:label="path53608" />
  <path
     style="fill:#f0f0f0;stroke-width:0.000495982;fill-opacity:1;filter:url(#filter1633)"
     d="m 4.4334192,18.509759 c 0.00805,-0.02652 0.1212122,-0.48407 0.2514794,-1.016776 l 0.2368493,-0.968556 6.2189941,-6.210985 c 6.743915,-6.7352296 6.311995,-6.3227518 6.690603,-6.3894422 0.123224,-0.021705 0.209603,-0.020788 0.329695,0.0035 0.0895,0.018101 0.184425,0.034143 0.210946,0.035648 0.02652,0.00151 0.04822,0.010975 0.04822,0.021044 0,0.010069 0.03932,0.034593 0.08737,0.054497 0.13736,0.056896 0.389993,0.3244589 0.479475,0.5078093 0.07359,0.1507909 0.08069,0.1907657 0.08069,0.4546498 0,0.2696212 -0.0056,0.2995815 -0.08266,0.4399769 -0.09183,0.1673663 -3.939128,4.0593516 -9.4971142,9.6074352 l -3.0401996,3.034783 -0.9644087,0.23776 c -0.5304248,0.130768 -0.9869435,0.237561 -1.014486,0.237318 -0.034814,-3.07e-4 -0.045618,-0.01514 -0.035447,-0.04866 z"
     id="path53821" />
</svg>
